HIERARCHY
ROOT Hips
{
	OFFSET	0.00	0.00	0.00
	CHANNELS 6 Xposition Yposition Zposition Zrotation Xrotation Yrotation
	JOINT LeftUpLeg
	{
		OFFSET	 0.126116	-0.065224	 0.014019
		CHANNELS 3 Zrotation Xrotation Yrotation
		JOINT LeftLeg
		{
			OFFSET	 0.000000	 0.569914	 0.000000
			CHANNELS 3 Zrotation Xrotation Yrotation
			JOINT LeftFoot
			{
				OFFSET	 0.000000	 0.544423	 0.000000
				CHANNELS 3 Zrotation Xrotation Yrotation
				JOINT LeftToeBase
				{
					OFFSET	 0.000000	 0.207117	 0.000000
					CHANNELS 3 Zrotation Xrotation Yrotation
					End Site
					{
						OFFSET	 0.000000	 0.207117	 0.000000
					}
				}
			}
		}
	}
	JOINT RightUpLeg
	{
		OFFSET	-0.124023	-0.065224	 0.008373
		CHANNELS 3 Zrotation Xrotation Yrotation
		JOINT RightLeg
		{
			OFFSET	 0.000000	 0.570047	 0.000000
			CHANNELS 3 Zrotation Xrotation Yrotation
			JOINT RightFoot
			{
				OFFSET	 0.000000	 0.544354	 0.000000
				CHANNELS 3 Zrotation Xrotation Yrotation
				JOINT RightToeBase
				{
					OFFSET	 0.000000	 0.207540	 0.000000
					CHANNELS 3 Zrotation Xrotation Yrotation
					End Site
					{
						OFFSET	 0.000000	 0.207540	 0.000000
					}
				}
			}
		}
	}
	JOINT Spine
	{
		OFFSET	 0.000184	 0.117403	 0.007763
		CHANNELS 3 Zrotation Xrotation Yrotation
		JOINT Spine1
		{
			OFFSET	 0.000000	 0.137269	 0.000000
			CHANNELS 3 Zrotation Xrotation Yrotation
			JOINT Spine2
			{
				OFFSET	 0.000000	 0.156879	 0.000000
				CHANNELS 3 Zrotation Xrotation Yrotation
				JOINT LeftShoulder
				{
					OFFSET	 0.080501	 0.160143	 0.002496
					CHANNELS 3 Zrotation Xrotation Yrotation
					JOINT LeftArm
					{
						OFFSET	 0.000000	 0.164363	 0.000000
						CHANNELS 3 Zrotation Xrotation Yrotation
						JOINT LeftForeArm
						{
							OFFSET	 0.000000	 0.364576	 0.000000
							CHANNELS 3 Zrotation Xrotation Yrotation
							JOINT LeftHand
							{
								OFFSET	 0.000000	 0.360812	 0.000000
								CHANNELS 3 Zrotation Xrotation Yrotation
								JOINT LeftHandIndex1
								{
									OFFSET	 0.000000	 0.086006	 0.000000
									CHANNELS 3 Zrotation Xrotation Yrotation
									JOINT LeftHandIndex2
									{
										OFFSET	 0.000000	 0.047237	 0.000000
										CHANNELS 3 Zrotation Xrotation Yrotation
										JOINT LeftHandIndex3
										{
											OFFSET	-0.004284	 0.038165	 0.000551
											CHANNELS 3 Zrotation Xrotation Yrotation
											End Site
											{
												OFFSET	-0.004284	 0.038165	 0.000551
											}
										}
									}
								}
							}
						}
					}
				}
				JOINT Neck
				{
					OFFSET	 0.000000	 0.176489	 0.000000
					CHANNELS 3 Zrotation Xrotation Yrotation
					JOINT Head
					{
						OFFSET	 0.000000	 0.077941	 0.001747
						CHANNELS 3 Zrotation Xrotation Yrotation
						End Site
						{
							OFFSET	 0.000000	 0.077941	 0.001747
						}
					}
				}
				JOINT RightShoulder
				{
					OFFSET	-0.080363	 0.159706	-0.000306
					CHANNELS 3 Zrotation Xrotation Yrotation
					JOINT RightArm
					{
						OFFSET	 0.000000	 0.164196	 0.000000
						CHANNELS 3 Zrotation Xrotation Yrotation
						JOINT RightForeArm
						{
							OFFSET	 0.000000	 0.365611	 0.000000
							CHANNELS 3 Zrotation Xrotation Yrotation
							JOINT RightHand
							{
								OFFSET	 0.000000	 0.360648	 0.000000
								CHANNELS 3 Zrotation Xrotation Yrotation
								JOINT RightHandIndex1
								{
									OFFSET	 0.000000	 0.069977	 0.000000
									CHANNELS 3 Zrotation Xrotation Yrotation
									JOINT RightHandIndex2
									{
										OFFSET	 0.000000	 0.052305	 0.000000
										CHANNELS 3 Zrotation Xrotation Yrotation
										JOINT RightHandIndex3
										{
											OFFSET	 0.009002	 0.042196	 0.000782
											CHANNELS 3 Zrotation Xrotation Yrotation
											End Site
											{
												OFFSET	 0.009002	 0.042196	 0.000782
											}
										}
									}
								}
							}
						}
					}
				}
			}
		}
	}
}
MOTION
Frames:    13
Frame Time: 0.03333334
 0.002342	 1.271137	 0.063404	-0.391505	 0.005028	-179.992900	-176.019800	 0.276849	-17.880900	 1.861549	-8.717699	-0.115539	-5.650676	 68.489840	 4.604747	 1.292262	 28.425850	-2.713146	 175.133000	 1.728121	 17.857120	-2.335576	-11.211760	 0.036964	 5.964000	 69.687180	-4.796174	-1.288183	 28.361890	 2.710176	-0.046518	 2.985346	 9.905760	-2.249665	 2.992923	 5.103290	 2.142646	-3.715576	-14.936030	-101.478000	 1.740679	 90.353390	 3.802483	 64.313860	-0.364123	 2.188727	 4.569218	 1.367768	 13.031900	 10.165980	 32.592480	-6.580301	 5.266122	 0.000000	 0.000000	 0.000000	 0.000000	 0.000000	 0.000000	 0.000000	 0.089846	-3.783161	 0.005928	 0.025318	 0.780327	-3.716666	 101.796200	-0.213320	-89.955450	-7.179646	 62.306570	-1.406060	-2.792505	 4.274578	 1.385804	-9.561804	-3.914668	 36.992600	 15.208500	 5.323790	 0.000000	 0.000000	 0.000000	 0.000000	 0.000000	 0.000000	 0.000000
 0.002329	 1.276527	 0.145044	-0.231505	-0.370038	-179.997400	-175.544800	 4.445724	-17.926890	 3.093695	-14.292180	 0.130505	-6.457237	 70.351400	 5.120507	 1.292262	 28.425850	-2.713146	 175.478900	 4.587378	 18.026120	-1.586733	-7.670730	 0.159863	 3.315877	 63.862470	-3.787041	-1.288183	 28.361890	 2.710176	 0.115154	 3.164900	 10.336130	-2.301802	 1.025413	 4.920328	 2.327004	-1.256293	-14.675350	-101.478000	 1.740680	 90.353390	 5.857140	 64.516060	-2.355314	 2.136035	 4.417489	 1.386291	 10.622760	 9.353048	 32.544820	-6.580301	 5.266122	 0.000000	 0.000000	 0.000000	 0.000000	 0.000000	 0.000000	 0.000000	 0.089846	-3.783161	 0.005928	 0.034712	 1.084065	-3.667816	 101.796200	-0.213305	-89.955450	-8.555963	 62.907940	-0.127486	-2.702858	 4.106263	 1.312863	-8.294515	-3.430267	 35.802290	 15.208500	 5.323790	 0.000000	 0.000000	 0.000000	 0.000000	 0.000000	 0.000000	 0.000000
 0.002385	 1.282026	 0.227610	-0.138463	-0.698082	-179.999400	-175.668000	 3.802128	-17.951800	 2.201819	-10.279070	-0.059385	-4.878986	 67.343710	 4.257399	 1.292262	 28.425850	-2.713146	 175.718900	 7.842067	 18.131670	-1.027675	-4.985746	 0.221494	 1.359955	 58.452080	-3.422618	-1.288183	 28.361890	 2.710176	 0.107883	 3.398346	 11.497540	-2.367075	-0.936227	 4.543781	 2.445493	 1.199576	-13.790580	-101.478000	 1.740674	 90.353380	 7.920322	 64.645240	-4.349069	 2.134962	 4.286363	 1.430220	 8.206782	 8.192826	 30.969380	-6.580301	 5.266122	 0.000000	 0.000000	 0.000000	 0.000000	 0.000000	 0.000000	 0.000000	 0.089846	-3.783161	 0.005928	 0.043147	 1.430278	-3.455698	 101.796200	-0.213312	-89.955450	-8.990219	 63.707870	 0.251045	-2.649180	 3.927542	 1.107814	-8.684741	-3.397030	 32.111570	 15.208500	 5.323790	 0.000000	 0.000000	 0.000000	 0.000000	 0.000000	 0.000000	 0.000000
 0.002241	 1.282894	 0.239825	-0.076365	-0.739419	-179.999900	-175.685500	 3.310598	-17.951520	 1.902934	-8.908372	-0.109205	-4.503276	 66.507400	 4.072604	 1.292262	 28.425850	-2.713146	 175.777000	 8.502863	 18.140650	-1.025729	-4.976346	 0.221664	 1.145786	 57.853890	-3.399210	-1.288183	 28.361890	 2.710176	-0.043335	 3.844687	 13.061880	-2.221354	-2.652396	 4.011423	 2.364665	 3.368467	-12.350840	-101.478000	 1.740653	 90.353370	 9.905206	 64.475410	-6.245013	 2.220716	 4.275979	 1.487983	 5.919866	 7.140824	 27.929160	-6.580301	 5.266122	 0.000000	 0.000000	 0.000000	 0.000000	 0.000000	 0.000000	 0.000000	 0.089846	-3.783161	 0.005928	 0.047989	 1.774132	-3.098633	 101.796200	-0.213310	-89.955440	-8.604465	 64.206580	-0.103674	-2.685285	 3.841507	 0.816529	-10.452570	-3.397092	 26.420720	 15.208500	 5.323790	 0.000000	 0.000000	 0.000000	 0.000000	 0.000000	 0.000000	 0.000000
 0.002044	 1.282989	 0.239805	-0.009448	-0.735019	 179.999700	-175.620800	 3.341823	-17.950160	 1.919150	-8.983014	-0.106690	-4.507059	 66.548840	 4.073224	 1.292262	 28.425850	-2.713146	 175.839000	 8.496285	 18.134330	-1.025517	-4.975325	 0.221683	 1.143506	 57.853420	-3.389697	-1.288183	 28.361890	 2.710176	-0.389010	 4.337895	 15.201740	-1.838615	-4.482055	 3.128933	 2.015499	 5.694525	-9.768522	-101.478000	 1.740670	 90.353390	 12.065580	 64.292940	-8.300344	 2.367494	 4.285408	 1.577467	 3.273892	 5.777475	 22.236040	-6.580301	 5.266122	 0.000000	 0.000000	 0.000000	 0.000000	 0.000000	 0.000000	 0.000000	 0.089846	-3.783161	 0.005928	 0.046783	 2.185301	-2.452528	 101.796200	-0.213312	-89.955440	-6.809433	 64.868240	-1.747155	-2.759194	 3.734367	 0.364417	-14.498190	-3.260819	 16.795850	 15.208500	 5.323790	 0.000000	 0.000000	 0.000000	 0.000000	 0.000000	 0.000000	 0.000000
 0.001867	 1.283211	 0.239793	 0.060503	-0.738431	 179.994400	-175.560300	 3.305398	-17.948730	 1.902340	-8.905628	-0.109292	-4.468941	 66.512420	 4.045352	 1.292262	 28.425850	-2.713146	 175.902100	 8.498577	 18.129100	-1.025189	-4.973745	 0.221720	 1.151478	 57.850930	-3.390404	-1.288183	 28.361890	 2.710176	-0.788886	 4.650054	 16.568270	-1.262389	-5.842020	 2.033619	 1.399829	 7.435524	-6.396814	-101.478000	 1.740682	 90.353390	 13.717060	 64.228310	-9.868148	 2.510877	 4.293705	 1.665119	 0.951920	 4.510306	 14.686720	-6.580301	 5.266122	 0.000000	 0.000000	 0.000000	 0.000000	 0.000000	 0.000000	 0.000000	 0.089846	-3.783161	 0.005928	 0.035419	 2.524247	-1.607534	 101.796200	-0.213321	-89.955450	-4.334696	 65.467900	-4.016654	-2.832319	 3.631244	-0.068085	-19.409730	-2.188353	 5.600315	 15.208500	 5.323790	 0.000000	 0.000000	 0.000000	 0.000000	 0.000000	 0.000000	 0.000000
 0.001664	 1.283410	 0.239780	 0.112738	-0.741404	 179.985000	-175.520800	 3.259366	-17.947320	 1.881863	-8.811317	-0.112446	-4.417237	 66.468760	 4.006666	 1.292262	 28.425850	-2.713146	 175.949500	 8.501228	 18.124390	-1.024892	-4.972309	 0.221748	 1.164557	 57.848460	-3.399239	-1.288183	 28.361890	 2.710176	-1.109193	 4.790954	 15.645690	-0.481996	-6.629078	 0.662919	 0.498214	 8.448719	-2.073863	-101.478000	 1.740677	 90.353400	 14.680400	 64.194810	-10.796970	 2.591607	 4.298411	 1.714468	-0.998288	 3.567908	 4.945517	-6.580301	 5.266122	 0.000000	 0.000000	 0.000000	 0.000000	 0.000000	 0.000000	 0.000000	 0.089846	-3.783161	 0.005928	 0.012517	 2.735654	-0.524200	 101.796200	-0.213308	-89.955460	-2.915021	 65.777240	-5.346795	-2.874426	 3.576977	-0.322085	-22.941030	 0.751456	-5.735398	 15.208500	 5.323790	 0.000000	 0.000000	 0.000000	 0.000000	 0.000000	 0.000000	 0.000000
 0.001530	 1.283544	 0.239771	 0.160185	-0.742507	 179.977400	-175.479400	 3.242816	-17.946480	 1.874932	-8.779379	-0.113509	-4.386800	 66.455460	 3.980367	 1.292262	 28.425850	-2.713146	 175.991900	 8.502316	 18.120860	-1.024700	-4.971378	 0.221755	 1.176912	 57.846110	-3.407320	-1.288183	 28.361890	 2.710176	-1.265972	 4.734728	 12.938090	 0.351410	-6.582815	-0.791310	-0.496111	 8.383933	 2.537478	-101.478000	 1.740680	 90.353390	 14.617630	 64.189190	-10.784790	 2.606116	 4.300745	 1.722833	-2.087296	 2.990365	-5.511593	-6.580301	 5.266122	 0.000000	 0.000000	 0.000000	 0.000000	 0.000000	 0.000000	 0.000000	 0.089846	-3.783161	 0.005928	-0.015016	 2.724178	 0.631503	 101.796200	-0.213310	-89.955440	-2.440675	 65.850460	-5.863478	-2.881957	 3.568000	-0.363850	-24.612150	 4.663948	-15.740840	 15.208500	 5.323790	 0.000000	 0.000000	 0.000000	 0.000000	 0.000000	 0.000000	 0.000000
 0.001409	 1.283540	 0.239761	 0.217476	-0.738407	 179.972900	-175.415800	 3.320052	-17.946000	 1.911282	-8.946802	-0.107907	-4.405707	 66.543270	 3.982156	 1.292262	 28.425850	-2.713146	 176.043200	 8.497829	 18.116780	-1.024629	-4.971031	 0.221770	 1.184985	 57.844330	-3.409243	-1.288183	 28.361890	 2.710176	-1.201764	 4.473326	 8.296243	 1.172182	-5.563557	-2.300931	-1.454374	 7.059332	 7.269925	-101.478000	 1.740677	 90.353390	 13.312320	 64.138790	-9.630293	 2.545065	 4.303945	 1.683163	-2.058271	 2.555184	-16.400360	-6.580301	 5.266122	 0.000000	 0.000000	 0.000000	 0.000000	 0.000000	 0.000000	 0.000000	 0.089846	-3.783161	 0.005928	-0.038949	 2.454587	 1.817875	 101.796200	-0.213316	-89.955450	-3.082844	 65.726210	-5.383254	-2.853584	 3.610634	-0.102098	-24.046600	 8.856391	-24.226050	 15.208500	 5.323790	 0.000000	 0.000000	 0.000000	 0.000000	 0.000000	 0.000000	 0.000000
 0.001317	 1.283347	 0.239746	 0.230257	-0.724588	 179.977800	-175.391900	 3.442057	-17.945740	 1.971161	-9.222248	-0.098453	-4.468852	 66.685810	 4.021028	 1.292262	 28.425850	-2.713146	 176.056400	 8.482213	 18.114180	-1.024724	-4.971486	 0.221750	 1.175224	 57.846540	-3.397505	-1.288183	 28.361890	 2.710176	-0.988348	 4.151162	 3.200576	 1.629879	-4.172392	-3.308272	-1.962039	 5.270126	 10.318650	-101.478000	 1.740667	 90.353390	 11.508870	 63.969890	-7.994250	 2.425591	 4.304956	 1.607399	-1.124583	 2.237399	-23.573690	-6.580301	 5.266122	 0.000000	 0.000000	 0.000000	 0.000000	 0.000000	 0.000000	 0.000000	 0.089846	-3.783161	 0.005928	-0.047656	 2.114012	 2.582511	 101.796200	-0.213326	-89.955440	-5.038270	 65.454100	-3.620300	-2.787832	 3.703348	 0.210467	-21.440130	 11.120590	-27.995440	 15.208500	 5.323790	 0.000000	 0.000000	 0.000000	 0.000000	 0.000000	 0.000000	 0.000000
 0.000849	 1.282829	 0.239677	 0.389270	-0.675570	 179.994900	-175.192200	 3.889944	-17.943500	 2.191434	-10.231620	-0.061236	-4.697608	 67.208890	 4.159627	 1.292262	 28.425850	-2.713146	 176.206900	 8.424697	 18.097310	-1.024803	-4.971876	 0.221750	 1.140578	 57.852040	-3.343182	-1.288183	 28.361890	 2.710176	 0.655697	 2.234440	-29.684240	 1.988511	 2.753832	-5.078303	-2.035779	-3.533425	 14.926490	-101.478000	 1.740660	 90.353390	 2.553925	 61.915970	 0.152400	 2.869013	 4.338035	 0.757776	 5.361470	-0.226216	-34.958620	-6.580301	 5.266122	 0.000000	 0.000000	 0.000000	 0.000000	 0.000000	 0.000000	 0.000000	 0.089846	-3.783161	 0.005928	-0.026051	 0.803127	 3.715594	 101.796200	-0.213313	-89.955460	-5.926952	 38.011250	 2.802502	-43.231220	 45.582370	 19.158680	-4.960100	 4.021875	-46.779960	 15.208500	 5.323790	 0.000000	 0.000000	 0.000000	 0.000000	 0.000000	 0.000000	 0.000000
 0.002329	 1.282936	 0.239590	-0.153727	-0.606303	 179.993400	-175.780800	 2.993235	-17.950390	 1.831379	-8.578584	-0.120078	-4.454895	 66.358500	 4.053920	 1.292262	 28.425850	-2.713146	 175.706300	 8.351887	 18.144930	-1.025803	-4.976704	 0.221664	 1.179119	 57.873270	-3.438466	-1.288183	 28.361890	 2.710176	-0.924096	 1.931357	 32.549750	-1.533695	 3.600530	 3.323176	 1.375345	-4.613645	-9.589356	-101.478000	 1.740674	 90.353370	 0.621128	 60.600340	 1.991718	 6.021025	 4.398158	-1.684568	 15.668940	 7.757191	 19.784560	-6.580301	 5.266122	 0.000000	 0.000000	 0.000000	 0.000000	 0.000000	 0.000000	 0.000000	 0.089846	-3.783161	 0.005928	 0.020980	 1.015956	-2.366030	 101.796200	-0.213306	-89.955460	-36.017080	 10.676090	 51.614860	-62.796240	 50.360730	 32.986740	 27.265540	-29.026330	-32.306790	 15.208500	 5.323790	 0.000000	 0.000000	 0.000000	 0.000000	 0.000000	 0.000000	 0.000000
 0.002541	 1.282810	 0.239574	-0.230676	-0.589527	-179.999000	-175.855100	 2.938922	-17.951660	 1.815123	-8.503580	-0.122494	-4.471545	 66.318420	 4.075408	 1.292262	 28.425850	-2.713146	 175.636300	 8.333216	 18.150960	-1.026063	-4.977952	 0.221633	 1.171273	 57.878280	-3.437277	-1.288183	 28.361890	 2.710176	-0.958174	 2.027800	 33.966140	-1.924320	 3.365890	 4.190313	 1.754887	-4.283754	-12.166070	-101.478000	 1.740675	 90.353390	 1.337109	 61.564790	 1.472506	 6.223262	 4.408216	-1.839537	 15.480490	 8.866166	 25.755050	-6.580301	 5.266122	 0.000000	 0.000000	 0.000000	 0.000000	 0.000000	 0.000000	 0.000000	 0.089846	-3.783161	 0.005928	 0.023805	 0.904952	-3.013626	 101.796200	-0.213324	-89.955460	-23.184300	 16.624690	 37.339030	-78.906650	 53.027320	 47.183550	 29.005930	-37.369560	-14.421770	 15.208500	 5.323790	 0.000000	 0.000000	 0.000000	 0.000000	 0.000000	 0.000000	 0.000000
